<?xml version="1.0" standalone="no"?><svg xmlns="http://www.w3.org/2000/svg" viewBox="0 0 1440 320" preserveAspectRatio="none"><path fill="currentColor" fill-opacity="1" d="M0,256L30,218.7C60,181,120,107,180,106.7C240,107,300,181,360,192C420,203,480,149,540,122.7C600,96,660,96,720,122.7C780,149,840,203,900,202.7C960,203,1020,149,1080,117.3C1140,85,1200,75,1260,80C1320,85,1380,107,1410,117.3L1440,128L1440,320L1410,320C1380,320,1320,320,1260,320C1200,320,1140,320,1080,320C1020,320,960,320,900,320C840,320,780,320,720,320C660,320,600,320,540,320C480,320,420,320,360,320C300,320,240,320,180,320C120,320,60,320,30,320L0,320Z"></path></svg>